<?xml version="1.0" encoding="UTF-8"?>
<svg id="Layer_1" data-name="Layer 1" xmlns="http://www.w3.org/2000/svg" viewBox="0 0 1876.63 1829.09">
  <defs>
    <style>
      .cls-1 {
        fill: #cb8763;
      }

      .cls-1, .cls-2 {
        stroke-width: 0px;
      }

      .cls-2 {
        fill: #edbb1d;
      }
    </style>
  </defs>
  <path class="cls-2" d="M1210.78,1240.07c-166.5,194.95-378.66,300.05-527.34,353.81-176,63.71-332.78,81.25-403.91,70.57-14.28-2.14-22.44-5-27.05-7.48-4.61-2.42-5.68-4.44-5.85-4.84-4.84-11.19,55.5-45.15,113.92-77.99,150.25-84.52,429.89-241.85,686.08-546.79,208-247.59,307.36-479.37,366.74-617.81,8.43-19.62,16.93-39.47,24.97-57.07,5.12,5.23,11.81,10.85,23.9,16.36,14.85,6.75,23.05,8.72,30.98,10.63,2.36.56,4.67,1.12,7.14,1.8,15.41,175.84-38.01,564.17-289.59,858.82Z"/>
  <path class="cls-1" d="M1621.22,324.79c-4.55,6.02-10.23,13.5-15.07,24.18-4.22,9.22-6.35,16.7-8.1,22.72-3.77,12.93-5,17.26-21.93,23.9-13.1,5.12-15.58,2.81-23.67-4.89-5.57-5.23-12.54-11.75-24.35-17.09-4.67-2.14-8.66-3.77-12.2-5.06-3.26-1.24-6.13-2.19-8.77-2.92v-.06c-3.09-.84-5.85-1.57-8.6-2.19-.45-.11-.96-.22-1.41-.34-7.48-1.8-14.56-3.49-27.89-9.56-12.48-5.68-17.15-10.91-22.61-16.93-.17-.22-.39-.39-.56-.62-1.86-2.08-3.88-4.27-6.24-6.52-1.91-1.86-4.11-3.71-6.69-5.57-3.82-2.81-8.55-5.57-14.62-8.32-14.51-6.64-22.27-9.17-29.75-11.64-7.37-2.42-14.34-4.72-28.06-10.96-12.26-5.57-21.65-6.13-28.51-6.52-9.17-.51-11.08-.62-15.63-13.27-4.44-12.31-2.92-13.61,4.33-19.68,5.85-4.84,13.78-11.47,19.91-24.97,6.64-14.56,4.67-28.68,3.09-39.98-.73-5-1.18-8.88-1.18-12.03,0-6.47,2.19-9.5,9.22-12.26,4.22-1.63,7.42-2.47,10.23-2.47,6.47,0,10.4,4.5,18.05,13.33,5.34,6.19,12.03,13.83,21.65,21.54,18.11,14.56,25.19,17.32,38.01,22.38,5.12,2.02,10.91,4.33,18.89,7.98,15.8,7.14,25.81,7.09,34.69,7.03,8.15,0,15.18-.06,27.55,5.57,12.09,5.45,16.31,11.3,21.26,18.05,5.51,7.65,11.75,16.25,27.89,23.56,14,6.35,26.65,4.89,36.83,3.71,13.61-1.57,16.98-1.57,20.64,8.6,5.57,15.52,1.8,20.47-6.41,31.32Z"/>
</svg>