<?xml version="1.0" encoding="UTF-8"?>
<svg id="Layer_1" data-name="Layer 1" xmlns="http://www.w3.org/2000/svg" viewBox="0 0 1876.63 1871.62">
  <defs>
    <style>
      .cls-1 {
        fill: #e84440;
      }

      .cls-1, .cls-2 {
        stroke-width: 0px;
      }

      .cls-2 {
        fill: #edbb1d;
      }
    </style>
  </defs>
  <path class="cls-2" d="M432.2,281c279.01-217.96,814.35,8.97,1041.27,361.26,132.57,205.81,226.06,557.15,63.75,750.85-224.19,267.55-892.16,181.58-1154.61-219.59-179.27-274.02-180.76-712.58,49.58-892.52Z"/>
  <path class="cls-1" d="M1126.85,1583.03c-17.78,0-35.72-.53-53.8-1.6-137.97-8.16-276.45-45.91-400.47-109.19-135-68.87-245.66-165.37-320.03-279.05-46.22-70.66-81.53-151.49-104.95-240.26-22.54-85.47-32.82-176.15-29.7-262.25,3.26-90.26,20.42-173.25,51-246.67,33.21-79.72,80.71-144.09,141.18-191.34h0c54.25-42.38,118.91-70.69,192.17-84.15,67.7-12.43,141.72-12.02,219.99,1.23,127.31,21.55,259.17,75.55,381.34,156.17,123.9,81.76,227.67,184.41,300.1,296.86,74.74,116.03,128.62,259.77,147.82,394.35,23.57,165.21-6.42,303.19-86.73,399.04-50.83,60.66-122.14,105.86-211.97,134.34-67.66,21.45-144.91,32.5-225.96,32.5ZM454.32,309.32h0c-50.62,39.54-90.68,94.16-119.08,162.34-26.87,64.51-42.62,141.15-45.52,221.62-2.86,79.14,6.61,162.59,27.37,241.32,21.14,80.15,54.2,155.96,95.6,219.25,67.53,103.22,168.69,191.18,292.55,254.37,115.26,58.8,243.91,93.89,372.05,101.47,91.84,5.43,179.59-4.14,253.79-27.67,76.59-24.29,136.68-61.97,178.6-111.99,84.45-100.78,85.04-242.01,70.67-342.73-17.53-122.86-68.78-259.53-137.09-365.58-67.07-104.12-163.64-199.49-279.27-275.79-113.89-75.16-236.22-125.4-353.75-145.3-100.48-17.01-243.81-18.89-355.93,68.69Z"/>
</svg>