<?xml version="1.0" encoding="UTF-8"?>
<svg id="Layer_1" data-name="Layer 1" xmlns="http://www.w3.org/2000/svg" viewBox="0 0 1876.63 1829.09">
  <defs>
    <style>
      .cls-1 {
        fill: #333467;
        stroke-width: 0px;
      }
    </style>
  </defs>
  <path class="cls-1" d="M1309.04,536.75c41.26-20.03,78.64-48.59,109.2-84.7-83.03,10.12-168.88,2.76-251.92-23.96,47.28-43.84,81.91-101.14,97.77-165.81-69.7,45.98-149.7,77.62-235.78,90.74,22.56-60.13,27.93-126.59,13.37-191.3-27.78,47.88-62.43,92.12-103.37,131.11-40.94-38.99-75.59-83.24-103.37-131.11-14.55,64.71-9.19,131.17,13.37,191.3-86.08-13.12-166.08-44.76-235.78-90.74,15.87,64.67,50.5,121.97,97.77,165.81-83.04,26.72-168.89,34.08-251.92,23.96,30.56,36.1,67.94,64.66,109.2,84.7-154.86,113.97-255.35,297.52-255.35,504.55,0,345.77,280.3,626.07,626.07,626.07s626.07-280.3,626.07-626.07c0-207.02-100.49-390.57-255.35-504.55Z"/>
</svg>