<?xml version="1.0" encoding="UTF-8"?>
<svg id="Layer_1" data-name="Layer 1" xmlns="http://www.w3.org/2000/svg" viewBox="0 0 841.89 841.89">
  <defs>
    <style>
      .cls-1 {
        fill: #b6e4fa;
      }

      .cls-1, .cls-2 {
        stroke-width: 0px;
      }

      .cls-2 {
        fill: #b7e4fa;
      }
    </style>
  </defs>
  <path class="cls-1" d="M420.93,30.3c273.94-5.26,471.07,292.53,359.95,542.7-132.21,316.11-587.72,316.12-719.92,0C-50.1,322.84,146.96,25.01,420.93,30.3M420.93.3c-552.94,9.44-552.85,831.93.02,841.29,552.92-9.44,552.84-831.93-.02-841.29h0Z"/>
  <path class="cls-2" d="M428.09,31.87c48.06,0,93.25,18.72,127.23,52.7,33.98,33.98,52.7,79.17,52.7,127.23s-18.72,93.25-52.7,127.23c-33.98,33.98-79.17,52.7-127.23,52.7s-93.24-18.72-127.23-52.7c-33.98-33.98-52.7-79.17-52.7-127.23s18.72-93.25,52.7-127.23c33.98-33.98,79.17-52.7,127.23-52.7M428.09,1.87c-115.94,0-209.93,93.99-209.93,209.93s93.99,209.93,209.93,209.93,209.93-93.99,209.93-209.93S544.03,1.87,428.09,1.87h0Z"/>
  <path class="cls-2" d="M428.09,451.73c48.06,0,93.24,18.72,127.23,52.7,33.98,33.98,52.7,79.17,52.7,127.23s-18.72,93.25-52.7,127.23c-33.98,33.98-79.17,52.7-127.23,52.7s-93.25-18.72-127.23-52.7c-33.98-33.98-52.7-79.17-52.7-127.23s18.72-93.25,52.7-127.23c33.98-33.98,79.17-52.7,127.23-52.7M428.09,421.73c-115.94,0-209.93,93.99-209.93,209.93s93.99,209.93,209.93,209.93,209.93-93.99,209.93-209.93-93.99-209.93-209.93-209.93h0Z"/>
</svg>